<?xml version="1.0" encoding="UTF-8" standalone="no"?>
<!DOCTYPE svg PUBLIC "-//W3C//DTD SVG 1.1//EN" "http://www.w3.org/Graphics/SVG/1.1/DTD/svg11.dtd">
<svg width="100%" height="100%" viewBox="0 0 1920 1920" version="1.1" xmlns="http://www.w3.org/2000/svg" xmlns:xlink="http://www.w3.org/1999/xlink" xml:space="preserve" xmlns:serif="http://www.serif.com/" style="fill-rule:evenodd;clip-rule:evenodd;stroke-linejoin:round;stroke-miterlimit:2;">
    <path id="Hintergrund" d="M1254,1921L1,1921L1,1L1921,1L1921,1921L1254,1921M1005.75,764.663C1005.58,764.365 1005.33,764.161 1004.82,763.735C1004.82,763.735 1004.77,763.368 1004.86,762.577C1003.57,759.649 1001.33,756.76 1001.2,753.784C1000.99,748.592 997.803,747.772 993.723,746.406C988.562,739.626 983.256,732.948 978.283,726.032C974.146,720.278 970.47,714.194 966.444,708.357C964.807,705.986 962.698,703.946 960.956,701.639C958.296,698.115 955.677,694.551 953.204,690.893C949.394,685.259 945.721,679.53 941.933,673.182C940.017,669.215 937.873,665.339 936.258,661.254C935.032,658.152 933.45,659.349 931.121,659.86C929.028,656.643 926.936,653.426 924.834,649.41C922.788,645.191 921.085,640.755 918.59,636.82C916.481,633.494 913.529,630.678 910.794,627.783C909.737,626.664 908.25,625.949 906.998,625.025C906.998,625.025 906.955,625.031 906.884,624.633C906.778,624.369 906.595,624.182 906.003,623.619C905.982,623.433 905.961,623.247 905.808,622.518C905.287,622.002 904.766,621.486 904.075,620.917C904.075,620.917 904.088,620.739 904.074,620.135C903.564,619.159 903.054,618.184 902.043,616.663C900.186,614.831 898.027,613.216 896.527,611.127C891.424,604.016 886.527,596.756 881.604,589.517C878.69,585.232 875.875,580.878 873.038,575.878C871.491,573.209 870.111,570.425 868.365,567.893C863.304,560.55 858.134,553.28 852.882,546.072C852.391,545.398 851.021,545.364 849.747,544.423C849.154,543.842 848.454,543.337 847.985,542.67C837.888,528.317 827.824,513.942 817.738,499.582C813.106,492.986 808.47,486.393 803.788,479.832C794.84,467.292 785.867,454.77 776.887,442.253C767.701,429.448 758.494,416.658 749.654,403.23C770.64,388.284 791.626,373.339 812.969,358.718C813.193,358.329 813.416,357.94 813.658,356.839C810.747,355.859 807.835,354.878 804.527,353.455C803.404,353.627 802.282,353.8 800.547,354.066C800.345,354.024 800.143,353.981 799.786,353.233C795.002,350.461 790.15,348.231 784.3,348.891C782.627,349.08 780.773,347.676 779.557,346.964C780.031,346.881 780.504,346.798 780.977,346.715C780.901,346.504 780.825,346.294 780.749,346.083C780.165,346.388 779.582,346.693 778.088,347.03C767.889,345.474 757.688,343.938 747.493,342.356C733.642,340.206 719.794,338.038 705.953,335.831C703.903,335.505 701.642,335.355 699.931,334.351C697.876,333.146 698.007,332.788 695.939,333.564C695.698,333.654 695.329,333.402 694.966,333.293C694.304,332.26 693.625,331.2 692.139,328.88C691.27,334.88 688.032,332.401 685.553,331.984C679.076,330.891 672.668,329.376 666.182,328.349C664.219,328.038 662.091,328.77 659.219,328.865C642.121,325.922 625.024,322.979 607.775,319.281C607.282,318.9 606.831,318.267 606.289,318.174C596.08,316.421 585.863,314.72 575.642,313.039C573.152,312.629 570.644,312.329 567.225,312.067C559.132,310.723 551.039,309.379 542.268,307.978C541.817,308.019 541.366,308.059 540.251,308.196C539.813,308.115 539.376,308.034 538.788,307.238C533.753,304.997 528.696,302.913 522.242,304.806C522.081,304.582 521.92,304.358 521.314,303.744C519.992,303.14 518.723,302.234 517.336,301.983C509.606,300.582 501.848,299.335 494.098,298.044C481.084,295.874 468.085,293.605 455.044,291.609C451.113,291.007 447.064,291.169 442.253,290.81C432.379,288.91 422.527,286.888 412.625,285.143C400.585,283.022 388.497,281.174 376.443,279.133C363.124,276.879 349.809,274.599 336.515,272.204C331.978,271.387 330.593,272.462 330.057,277.001C329.241,283.909 328.109,290.782 327.049,297.659C326.656,300.204 326.023,302.711 325.608,305.253C324.426,312.497 323.3,319.75 321.559,327.439C321.314,330.26 321.068,333.081 320.905,336.618C320.776,337.077 320.646,337.537 319.877,338.233C317.615,344.407 316.321,350.792 315.359,357.29C314.106,365.744 312.642,374.172 311.015,382.561C310.73,384.031 309.194,385.259 308.609,386.076C308.798,388.844 309.364,391.584 309.099,394.241C308.214,403.106 307.032,411.941 306.124,421.662C305.718,424.671 305.396,427.693 304.891,430.685C303.292,440.15 301.624,449.604 299.235,459.236C299.036,462.447 298.837,465.657 298.741,469.595C298.588,470.054 298.435,470.512 297.64,471.214C297.111,472.181 296.281,473.094 296.101,474.121C294.429,483.676 292.764,493.234 291.308,502.823C290.051,511.111 289.07,519.44 288.038,528.417C287.988,528.635 287.938,528.852 287.353,529.565C285.582,538.492 283.712,547.402 282.103,556.358C281.662,558.819 282.003,561.42 282.102,564.643C282.075,565.106 282.048,565.569 281.26,566.219C280.857,567.045 280.208,567.836 280.09,568.701C278.967,576.933 277.875,585.17 276.899,593.42C276.371,597.89 276.085,602.388 275.768,607.61C275.621,608.074 275.473,608.537 274.721,609.318C273.783,617.217 269.712,624.313 269.489,632.531C269.315,638.979 267.121,645.355 266.044,651.8C263.97,664.219 261.94,676.648 260.112,689.105C259.155,695.624 258.666,702.211 258.132,709.646C256.633,718.883 255.142,728.121 253.633,737.356C252.708,743.013 251.757,748.665 250.64,755.386C253.074,754.076 254.275,753.566 255.327,752.84C260.147,749.508 264.932,746.124 269.717,742.742C278.584,736.476 287.434,730.187 296.305,723.929C302.555,719.52 308.828,715.145 315.791,710.901C318.879,714.598 321.967,718.295 324.742,722.618C323.865,724.074 322.988,725.53 322.116,726.979C324.68,727.896 327.438,728.056 328.748,729.516C331.856,732.98 333.967,737.338 337.072,740.805C339.765,743.814 339.967,749.027 345.054,749.975C345.054,749.975 345.041,750.024 345.069,750.606C345.612,751.061 346.155,751.516 347.044,752.645C347.031,753.149 347.017,753.653 347.005,754.869C350.033,759.139 353.01,763.445 356.135,767.642C356.669,768.358 357.834,768.602 359.008,769.465C359.022,769.631 359.037,769.798 358.906,770.601C358.448,771.433 357.99,772.264 357.452,773.241C358.801,773.793 360.466,773.937 361.072,774.814C363.894,778.901 366.393,783.209 369.081,787.392C369.704,788.362 370.575,789.185 371.4,790.008C372.171,790.777 373.252,791.314 373.819,792.196C377.452,797.849 380.74,803.739 384.603,809.225C389.806,816.615 395.506,823.652 400.836,830.954C404.264,835.65 407.28,840.647 410.748,845.311C412.106,847.138 414.195,848.422 416.282,850.56C424.438,861.691 432.676,872.763 440.728,883.969C448.051,894.16 455.144,904.516 462.388,914.764C470.387,926.078 478.478,937.327 486.414,948.685C487.133,949.716 487.014,951.333 487.44,952.992C488.185,953.355 488.93,953.718 489.873,954.149C489.873,954.149 489.909,954.356 489.991,954.91C490.564,955.614 491.138,956.318 491.897,957.109C491.897,957.109 491.907,957.313 491.986,957.873C492.567,958.563 493.148,959.253 494.206,960.423C494.835,961.346 495.464,962.27 496.211,963.549C496.352,963.768 496.543,963.926 496.941,964.011C496.941,964.011 496.957,964.167 497.049,964.813C500.956,971.609 504.531,978.625 508.858,985.142C513.682,992.406 519.122,999.267 524.453,1006.18C525.621,1007.7 527.464,1008.69 529.386,1010.44C531.279,1012.9 533.258,1015.3 535.051,1017.83C542.607,1028.49 550.178,1039.15 557.61,1049.9C566.127,1062.23 574.395,1074.73 582.98,1087C588.459,1094.84 594.319,1102.41 600,1110.82C602.442,1114.15 604.884,1117.48 607.739,1120.97C607.739,1120.97 608.006,1121.32 608.017,1122.02C608.798,1123.64 609.43,1125.35 610.39,1126.86C613.285,1131.41 616.125,1136.02 619.354,1140.32C621.003,1142.52 623.436,1144.13 625.93,1146.43C625.967,1146.63 626.003,1146.82 625.789,1147.62C626.423,1149.54 626.895,1151.53 627.721,1153.37C630.095,1158.64 637.199,1161.38 635.285,1169.17C639.584,1167.45 641.276,1168.7 641.151,1172.62C641.127,1173.35 641.941,1174.42 642.653,1174.81C646.719,1176.98 648.412,1180.45 649.186,1184.86C649.525,1186.79 651.084,1188.65 652.449,1190.23C654.35,1192.42 656.683,1194.25 658.66,1196.39C661.214,1199.16 663.599,1202.08 666.527,1205.42C669.369,1209.21 672.271,1212.97 675.041,1216.81C686.08,1232.14 697.078,1247.51 708.216,1263.37C708.499,1263.57 708.783,1263.76 708.994,1263.97C708.994,1263.97 709.061,1263.93 709.028,1264.68C713.504,1271.67 717.807,1278.77 722.504,1285.6C727.427,1292.77 732.792,1299.62 737.848,1306.69C743.066,1313.99 748.309,1321.29 753.231,1328.78C757.153,1334.76 760.582,1341.06 764.295,1347.18C764.879,1348.14 765.79,1348.91 766.577,1349.74C768.722,1352 771.128,1354.07 772.974,1356.56C775.294,1359.68 776.957,1363.3 779.266,1366.43C784.421,1373.44 789.998,1380.13 795.039,1387.21C801.017,1395.61 806.498,1404.36 812.412,1412.8C816.833,1419.11 821.668,1425.13 826.175,1431.38C827.777,1433.61 828.797,1436.25 830.363,1438.5C832.833,1442.06 835.644,1445.38 838.118,1448.93C841.286,1453.48 844.121,1458.27 847.364,1462.76C850.065,1466.51 853.308,1469.86 855.944,1473.65C856.577,1474.55 855.831,1476.49 855.579,1477.93C855.321,1479.4 854.891,1480.85 854.536,1482.3C855.003,1482.39 855.469,1482.48 855.936,1482.57C856.898,1481.39 857.861,1480.22 859.604,1478.1C861.491,1484.93 870.303,1487.21 866.489,1495.96C867.098,1496.09 867.708,1496.22 868.317,1496.35C868.764,1495.15 869.211,1493.96 869.771,1492.46C871.949,1494.83 873.433,1496.44 874.99,1498.01C874.99,1498.01 874.948,1498.08 874.982,1498.81C877.923,1503.3 880.645,1507.96 883.882,1512.23C885.984,1515.01 888.329,1517.27 884.133,1520.71C888.369,1519.78 890.77,1520.69 891.281,1524.87C891.418,1525.99 892.775,1526.96 893.576,1528C897.143,1532.61 903.104,1536.12 900.121,1544.07C902.083,1543.36 903.345,1542.9 905.643,1542.06C906.772,1545.53 907.854,1548.85 909.144,1552.81C909.523,1552.96 911.67,1553.12 912.65,1554.27C915.235,1557.3 917.71,1560.57 919.516,1564.11C924.381,1573.65 934.616,1579.97 936.064,1591.26C938.251,1591.8 940.926,1592.66 941.229,1594.04C941.658,1595.99 940.335,1598.33 939.634,1600.98C941.273,1600.25 942.631,1599.65 943.96,1599.07C945.037,1601 945.743,1602.88 946.956,1604.32C950.012,1607.97 953.251,1611.46 956.518,1614.92C957.575,1616.04 958.949,1616.86 960.046,1618C960.046,1618 960.197,1617.83 960.077,1618.62C960.75,1621.83 961.424,1625.04 962.106,1628.3C962.66,1627.78 963.492,1627.01 964.324,1626.23C964.781,1626.38 965.238,1626.52 965.695,1626.66C965.399,1628.79 965.104,1630.91 964.808,1633.03C965.161,1632.7 965.514,1632.37 965.867,1632.04C972.174,1639.37 978.481,1646.71 985.283,1654.62C987.337,1651.77 988.539,1649.07 990.594,1647.46C995.07,1643.96 1000.05,1641.1 1004.69,1637.8C1008.09,1635.39 1011.21,1632.6 1014.58,1630.14C1020.58,1625.78 1026.61,1621.46 1032.74,1617.3C1037.68,1613.94 1042.86,1610.93 1047.83,1607.6C1052.06,1604.77 1056.66,1602.22 1060.14,1598.62C1064.06,1594.57 1072.79,1594.68 1071.57,1587.36C1067.73,1582.15 1064.12,1578.08 1061.48,1573.45C1058.93,1568.97 1057.39,1563.91 1055.51,1559.35C1055.28,1559.67 1054.55,1560.72 1053.84,1561.74C1053.2,1561.38 1052.81,1561.29 1052.65,1561.05C1048.35,1554.65 1044.05,1548.25 1039.79,1541.82C1037.64,1538.57 1035.72,1535.15 1033.42,1532.01C1026.22,1522.22 1017.26,1513.6 1013.55,1501.53C1013.33,1500.81 1012.54,1500.23 1011.96,1499.66C1009.29,1497.06 1006.2,1494.8 1004,1491.86C995.481,1480.46 987.203,1468.88 978.919,1457.31C974.983,1451.81 971.244,1446.18 967.398,1440.61C962.376,1433.35 957.508,1425.97 952.223,1418.9C949.961,1415.87 947.679,1413.29 951.191,1408.7C948.566,1409.42 947.245,1409.78 946.181,1410.07C941.775,1403.73 937.459,1397.44 933.059,1391.2C926.228,1381.52 919.308,1371.91 912.506,1362.21C911.337,1360.54 910.568,1358.6 910.067,1357.64C908.255,1356.31 906.683,1355.62 905.798,1354.43C903.043,1350.71 900.583,1346.77 897.948,1342.96C889.606,1330.89 881.21,1318.86 872.901,1306.78C871.196,1304.3 869.776,1301.62 867.977,1298.62C867.925,1298.63 866.806,1298.92 865.306,1298.96C865.067,1298.75 864.931,1298.48 864.907,1297.37C862.834,1293.34 861.078,1289.1 858.612,1285.32C855.202,1280.1 851.659,1274.85 847.425,1270.31C843.342,1265.93 842.292,1259.83 837.018,1255.87C832.131,1252.2 828.744,1246.16 825.63,1240.64C824.02,1237.79 818.804,1235.36 822.537,1230.44C822.746,1230.16 819.6,1227.16 817.826,1225.65C817.103,1225.04 815.357,1225.33 814.958,1224.68C811.734,1219.38 805.504,1215.21 808.648,1207.77C807.227,1207.13 806.247,1206.7 803.326,1205.39C805.922,1203.66 807.656,1202.67 809.192,1201.44C816.199,1195.84 826.82,1195.23 830.997,1185.71C831.053,1185.58 831.254,1185.51 831.395,1185.43C837.8,1181.46 844.468,1177.86 850.527,1173.42C855.034,1170.12 858.752,1165.74 862.945,1161.94C862.945,1161.94 862.851,1161.82 863.541,1161.89C864.667,1161.01 865.793,1160.12 867.253,1158.92C867.253,1158.92 867.698,1158.79 868.497,1158.89C869.473,1158.8 870.636,1159.02 871.396,1158.56C877.123,1155.14 882.771,1151.58 888.501,1148.03C888.342,1146.85 888.167,1145.56 888.265,1143.92C888.265,1143.92 888.677,1143.78 889.494,1143.88C891.871,1143.66 894.248,1143.44 896.277,1143.25C896.992,1141.47 897.172,1139.46 898.255,1138.62C901.036,1136.45 904.471,1135.1 907.177,1132.86C910.953,1129.73 914.305,1126.09 918.26,1122.14C921.155,1120.4 924.05,1118.67 927.452,1116.73C927.656,1116.25 927.861,1115.76 928.576,1114.83C930.98,1113.08 933.365,1111.31 935.791,1109.59C956.956,1094.6 978.094,1079.57 999.32,1064.67C1005.74,1060.17 1012.41,1056.02 1019.11,1052.43C1038.36,1076.78 1059.9,1098.91 1083.79,1118.72C1101.11,1133.08 1119.61,1145.67 1139.64,1156.08C1158.09,1165.67 1177.12,1173.6 1197.33,1178.39C1207.51,1180.81 1217.9,1182.8 1228.31,1183.73C1238.08,1184.61 1248.01,1183.62 1257.86,1183.85C1270.62,1184.15 1283.06,1181.73 1295.03,1178.07C1310,1173.49 1324.72,1167.93 1338.03,1159.27C1351.38,1150.59 1363.03,1140.47 1369.11,1125.21C1373.25,1114.81 1375.92,1104.31 1370.02,1093.65C1366.36,1087.05 1360.43,1081.98 1353.22,1082.48C1345.29,1083.03 1337.06,1082.93 1329.3,1087C1321.18,1091.26 1312.1,1093.75 1303.3,1096.58C1296.46,1098.77 1289.38,1100.23 1282.45,1102.14C1278.11,1103.34 1273.93,1105.26 1269.53,1106.02C1250.66,1109.27 1231.95,1109.28 1213.16,1104.38C1196.21,1099.96 1180.32,1093.59 1165.95,1083.57C1158.52,1078.39 1151.2,1073.04 1143.97,1067.58C1135.34,1061.07 1126.48,1054.8 1118.41,1047.65C1104.59,1035.43 1091.31,1022.61 1078.06,1009.4C1078.25,1009.13 1078.39,1008.78 1078.64,1008.6C1098.62,994.559 1118.64,980.588 1138.52,966.419C1140.75,964.831 1142.18,962.129 1144.49,959.516C1143.63,957.541 1142.96,955.451 1141.86,953.617C1140.05,950.587 1137.99,947.702 1135.97,944.794C1133.89,941.778 1131.74,938.807 1129.61,935.817C1129.04,936.329 1128.47,936.841 1127.34,936.952C1125.13,933.293 1123.11,929.504 1120.68,925.997C1113.53,915.699 1106.28,905.48 1098.95,895.308C1097.13,892.777 1094.62,890.725 1092.91,888.138C1088.87,882.053 1085.42,875.56 1081.16,869.639C1076.54,863.203 1071.09,857.364 1066.36,850.998C1063.62,847.303 1061.87,842.872 1059.16,839.145C1054.4,832.593 1048.93,826.546 1044.33,819.891C1036.45,808.492 1029.17,796.671 1021.32,785.255C1016.81,778.715 1011.66,772.623 1006.73,765.773C1006.44,765.552 1006.16,765.331 1006.01,765.06C1006.01,765.06 1005.88,765.133 1005.75,764.663M1499,979C1499,979 1499.01,979.005 1499,979.752C1496.92,986.726 1492.17,990.754 1485.43,993.284C1481.96,994.585 1477.22,995.235 1476.33,1001.11C1478.58,1000.28 1480.28,999.655 1483.16,998.589C1481.85,1000.32 1481.46,1001.28 1480.75,1001.7C1475.4,1004.86 1470.15,1008.27 1464.54,1010.89C1459.01,1013.47 1453.32,1017.08 1447.07,1011.48C1445.67,1010.23 1441.79,1009.93 1441.18,1014.21C1442.74,1014.78 1444.13,1015.28 1446.86,1016.27C1441.65,1016.98 1437.87,1018.05 1434.15,1017.88C1427.99,1017.59 1422.05,1018.58 1415.63,1015.57C1409.92,1012.9 1402.55,1011.8 1395.44,1013.88C1392.17,1014.83 1388.12,1014.6 1384.81,1013.62C1380.41,1012.32 1374.46,1015.28 1371.63,1009.25C1371.53,1009.05 1370.57,1009 1370.22,1009.22C1364.16,1012.85 1357.9,1008.85 1351.79,1009.77C1349.65,1010.09 1347.53,1010.47 1345.4,1010.82C1345.44,1011.29 1345.49,1011.76 1345.53,1012.23C1348.69,1013.82 1351.86,1015.4 1355.34,1017.33C1355.55,1017.55 1355.78,1017.76 1356.05,1018.67C1356.51,1020.63 1356.97,1022.61 1357.48,1024.75C1362.61,1025.62 1377.41,1040.51 1377.67,1044.14C1380.12,1045.59 1382.09,1046.37 1383.58,1047.69C1389.83,1053.28 1393.53,1060.95 1399.28,1067.07C1403.59,1071.65 1407.18,1077.31 1409.69,1083.09C1412.77,1090.2 1415.11,1097.81 1416.48,1105.43C1418.87,1118.68 1415.74,1131.54 1411.28,1143.97C1408.56,1151.57 1405.3,1158.99 1401.9,1166.32C1398.75,1173.11 1395.1,1179.66 1391.82,1186.03L1387.74,1186.03C1387.98,1187.06 1388.29,1188.07 1388.44,1189.11C1388.6,1190.22 1389.04,1191.55 1388.61,1192.43C1384.91,1200.09 1380.87,1207.59 1377.35,1215.33C1376.47,1217.27 1377.08,1219.89 1377.01,1222.2C1379.43,1221.87 1382.49,1222.35 1384.14,1221.05C1389.3,1216.97 1394,1212.3 1398.71,1207.69C1401.54,1204.93 1404.37,1203.1 1407.76,1205.42C1410.82,1199.1 1415.75,1195.45 1421.81,1193.03C1423.15,1192.49 1424.6,1192.19 1425.89,1191.54C1435.53,1186.65 1445.7,1183.23 1456.42,1182.12C1463.34,1181.41 1470.45,1181.47 1477.38,1182.13C1483.59,1182.71 1490.76,1183.01 1495.54,1186.29C1502.36,1190.96 1510.96,1190.81 1517.26,1197.24C1523.57,1203.67 1532.62,1207.34 1540.1,1212.75C1544.74,1216.1 1548.65,1220.44 1552.94,1224.3C1559.57,1230.28 1566.24,1236.22 1573.37,1242.61C1575.54,1241.88 1576.26,1240 1575.48,1236.79C1574.13,1231.2 1573.2,1225.5 1572.19,1219.83C1572.05,1219.09 1572.55,1218.25 1572.56,1217.46C1572.56,1215.02 1572.82,1212.5 1572.33,1210.15C1571.47,1206.05 1569.6,1202.13 1569.09,1198.01C1568.08,1189.89 1567.7,1181.69 1567.09,1173.52C1567,1172.36 1566.93,1171.18 1567.04,1170.03C1567.99,1160.27 1568.91,1150.5 1570.03,1140.76C1570.34,1138.06 1571.32,1135.44 1571.97,1132.78C1572.83,1129.24 1572.91,1125.25 1574.72,1122.3C1576.69,1119.09 1576.98,1113.64 1582.87,1114.11C1582.83,1108.22 1584.26,1103.45 1590.45,1101.98C1589.65,1094.43 1605.96,1077.17 1611.45,1077.47C1616.46,1073.44 1620.24,1069.86 1624.53,1067.09C1629.03,1064.2 1634.31,1062.5 1638.76,1059.54C1647.44,1053.77 1656.1,1048.22 1666.45,1045.75C1668.17,1045.34 1670.78,1042.75 1670.61,1041.49C1670.23,1038.7 1668.35,1037.08 1664.53,1037.5C1657.96,1038.23 1650.94,1039.08 1644.7,1037.52C1639.53,1036.23 1634.72,1034.58 1629.33,1035.33C1628.76,1035.41 1628.03,1034.4 1627.4,1033.91C1629.41,1032.96 1631.05,1032.18 1632.69,1031.4C1632.45,1030.83 1632.22,1030.25 1631.98,1029.67C1628.43,1030.79 1624.88,1031.9 1621.16,1033.07C1619.15,1028.48 1615.86,1027.68 1611.34,1030.42C1610.66,1030.83 1609.13,1030.03 1608.08,1029.59C1606.28,1028.82 1604.61,1027.73 1602.78,1027.09C1601.12,1026.51 1599.04,1026.78 1597.61,1025.91C1593.17,1023.22 1588.96,1020.16 1584.91,1017.42C1585.19,1015.47 1585.48,1013.53 1585.76,1011.58C1585.34,1011.49 1584.91,1011.4 1584.49,1011.31C1583.58,1012.55 1582.66,1013.8 1581.12,1015.9C1560.31,988.912 1546.92,960.218 1549.87,925.623C1548.59,928.459 1547.32,931.295 1546.04,934.131C1542.99,927.931 1539.38,922.413 1540.8,915.559C1541.05,914.388 1540.83,912.389 1540.08,911.862C1535.44,908.637 1535.45,903.068 1533.03,898.759C1532.52,897.845 1531.86,897.014 1531.05,895.819C1528.96,898.686 1527.22,901.095 1525.95,902.845C1525.95,906.641 1526.56,910.041 1525.82,913.119C1524.08,920.402 1521.89,927.595 1519.53,934.707C1516.84,942.79 1514.47,951.104 1510.62,958.624C1508.17,963.383 1507.64,970.45 1499.95,971.499C1497.6,971.819 1497.18,977.101 1499,979M1511.05,944.734C1511.49,945.23 1512.3,946.177 1512.32,946.159C1514.81,944.149 1514.39,937.656 1511.04,935.227C1511.04,938.442 1511.04,941.185 1511.05,944.734M1649.44,1056.18C1649.8,1056.19 1650.17,1056.19 1650.53,1056.2C1650.53,1056.05 1650.54,1055.76 1650.53,1055.76C1650.17,1055.74 1649.81,1055.73 1649.44,1056.18M850.181,1472.55C850.186,1472.19 850.191,1471.84 850.196,1471.48C850.047,1471.48 849.769,1471.46 849.768,1471.47C849.74,1471.83 849.737,1472.19 850.181,1472.55Z" style="fill:rgb(33,37,41);fill-opacity:0;fill-rule:nonzero;"/>
    <g id="Körper" transform="matrix(-1,0,0,1,1915.56,0)">
        <path d="M708.091,1262.86C697.078,1247.51 686.08,1232.14 675.041,1216.81C672.271,1212.97 669.369,1209.21 666.385,1204.88C665.617,1202.75 665.27,1200.96 664.321,1199.6C654.454,1185.38 644.555,1171.18 634.508,1157.09C631.97,1153.53 628.878,1150.37 626.04,1147.02C626.003,1146.82 625.967,1146.63 625.659,1145.89C619.593,1137.34 613.8,1129.33 608.006,1121.32C608.006,1121.32 607.739,1120.97 607.483,1120.53C604.821,1116.76 602.414,1113.42 600.008,1110.09C594.319,1102.41 588.459,1094.84 582.98,1087C574.395,1074.73 566.127,1062.23 557.61,1049.9C550.178,1039.15 542.607,1028.49 535.051,1017.83C533.258,1015.3 531.279,1012.9 529.171,1009.83C522.435,999.702 516.002,990.124 509.36,980.694C505.396,975.065 501.102,969.668 496.957,964.167C496.957,964.167 496.941,964.011 496.822,963.824C496.587,963.368 496.384,963.22 496.094,963.194C495.464,962.27 494.835,961.346 493.983,959.881C493.142,958.664 492.524,957.988 491.907,957.313C491.907,957.313 491.897,957.109 491.797,956.76C491.101,955.727 490.505,955.042 489.909,954.356C489.909,954.356 489.873,954.149 489.682,953.797C488.756,953.188 488.02,952.933 487.284,952.677C487.014,951.333 487.133,949.716 486.414,948.685C478.478,937.327 470.387,926.078 462.388,914.764C455.144,904.516 448.051,894.16 440.728,883.969C432.676,872.763 424.438,861.691 416.098,849.908C415.624,848.659 415.408,848.012 415.032,847.477C400.557,826.894 386.132,806.276 371.536,785.779C367.645,780.315 363.228,775.225 359.052,769.964C359.037,769.798 359.022,769.631 358.81,768.924C357.08,766.037 355.741,763.53 353.966,761.384C351.839,758.814 349.341,756.553 347.003,754.157C347.017,753.653 347.031,753.149 346.842,752.03C346.107,750.952 345.574,750.488 345.041,750.024C345.041,750.024 345.054,749.975 345.011,749.606C343.085,746.38 341.33,743.429 339.293,740.688C334.62,734.401 329.81,728.217 325.055,721.992C321.967,718.295 318.879,714.598 315.479,710.498C316.798,709.024 318.467,708.009 320.051,706.874C330.42,699.443 340.727,691.925 351.135,684.551C369.135,671.8 387.211,659.157 405.222,646.42C418.902,636.746 432.505,626.962 446.188,617.292C457.564,609.252 469.058,601.378 480.406,593.298C491.32,585.527 502.056,577.504 512.976,569.741C526.068,560.433 539.295,551.317 552.421,542.058C565.164,533.069 577.814,523.947 590.58,514.992C601.034,507.659 611.703,500.629 622.095,493.211C649.781,473.448 677.333,453.497 705.013,433.725C717.01,425.156 729.164,416.806 741.31,408.447C743.83,406.712 746.627,405.38 749.297,403.862C758.494,416.658 767.701,429.448 776.887,442.253C785.867,454.77 794.84,467.292 803.788,479.832C808.47,486.393 813.106,492.986 817.738,499.582C827.824,513.942 837.888,528.317 847.985,542.67C848.454,543.337 849.154,543.842 849.912,545.072C852.064,548.563 853.97,551.465 856.052,554.235C861.666,561.705 867.355,569.119 873.015,576.556C875.875,580.878 878.69,585.232 881.604,589.517C886.527,596.756 891.424,604.016 896.527,611.127C898.027,613.216 900.186,614.831 902.018,617.031C902.692,618.513 903.39,619.626 904.088,620.739C904.088,620.739 904.075,620.917 904.172,621.242C904.826,622.066 905.383,622.564 905.939,623.062C905.961,623.247 905.982,623.433 906.201,624.044C906.491,624.748 906.676,624.936 906.955,625.031C906.955,625.031 906.998,625.025 907.005,625.387C912.956,633.903 918.9,642.056 924.844,650.209C926.936,653.426 929.028,656.643 931.499,660.388C935.248,665.225 938.619,669.533 941.99,673.842C945.721,679.53 949.394,685.259 953.204,690.893C955.677,694.551 958.296,698.115 960.956,701.639C962.698,703.946 964.807,705.986 966.444,708.357C970.47,714.194 974.146,720.278 978.283,726.032C983.256,732.948 988.562,739.626 993.709,746.955C997.388,752.792 1001.08,758.08 1004.77,763.368C1004.77,763.368 1004.82,763.735 1004.93,764.155C1005.32,764.761 1005.6,764.947 1005.88,765.133C1005.88,765.133 1006.01,765.06 1006.03,765.331C1006.3,765.845 1006.55,766.087 1006.8,766.33C1011.66,772.623 1016.81,778.715 1021.32,785.255C1029.17,796.671 1036.45,808.492 1044.33,819.891C1048.93,826.546 1054.4,832.593 1059.16,839.145C1061.87,842.872 1063.62,847.303 1066.36,850.998C1071.09,857.364 1076.54,863.203 1081.16,869.639C1085.42,875.56 1088.87,882.053 1092.91,888.138C1094.62,890.725 1097.13,892.777 1098.95,895.308C1106.28,905.48 1113.53,915.699 1120.68,925.997C1123.11,929.504 1125.13,933.293 1127.67,937.478C1133.33,945.317 1138.66,952.63 1143.98,959.944C1142.18,962.129 1140.75,964.831 1138.52,966.419C1118.64,980.588 1098.62,994.559 1078.64,1008.6C1078.39,1008.78 1078.25,1009.13 1077.58,1009.71C1076.19,1010.38 1075.18,1010.59 1074.4,1011.14C1059.52,1021.64 1044.62,1032.12 1029.83,1042.75C1026.03,1045.48 1022.58,1048.71 1018.97,1051.71C1012.41,1056.02 1005.74,1060.17 999.32,1064.67C978.094,1079.57 956.956,1094.6 935.791,1109.59C933.365,1111.31 930.98,1113.08 928.08,1115.16C927.371,1115.97 927.158,1116.45 926.945,1116.93C924.05,1118.67 921.155,1120.4 917.721,1122.54C907.681,1129.88 898.179,1136.83 888.677,1143.78C888.677,1143.78 888.265,1143.92 887.79,1144.12C880.775,1149.15 874.236,1153.97 867.698,1158.79C867.698,1158.79 867.253,1158.92 866.761,1159.06C865.129,1160.07 863.99,1160.94 862.851,1161.82C862.851,1161.82 862.945,1161.94 862.553,1161.99C840.546,1177.3 818.931,1192.57 796.969,1207.94C774.795,1223.48 752.941,1238.86 731.161,1254.34C725.526,1258.35 720.12,1262.67 714.289,1266.88C712.333,1265.92 710.697,1264.93 709.061,1263.93C709.061,1263.93 708.994,1263.97 708.903,1263.75C708.584,1263.29 708.344,1263.07 708.091,1262.86Z" style="fill:rgb(213,83,83);fill-rule:nonzero;"/>
    </g>
    <g id="Kopf" transform="matrix(-1,0,0,1,1915.56,0)">
        <path d="M749.475,403.546C746.627,405.38 743.83,406.712 741.31,408.447C729.164,416.806 717.01,425.156 705.013,433.725C677.333,453.497 649.781,473.448 622.095,493.211C611.703,500.629 601.034,507.659 590.58,514.992C577.814,523.947 565.164,533.069 552.421,542.058C539.295,551.317 526.068,560.433 512.976,569.741C502.056,577.504 491.32,585.527 480.406,593.298C469.058,601.378 457.564,609.252 446.188,617.292C432.505,626.962 418.902,636.746 405.222,646.42C387.211,659.157 369.135,671.8 351.135,684.551C340.727,691.925 330.42,699.443 320.051,706.874C318.467,708.009 316.798,709.024 315.129,710.425C308.828,715.145 302.555,719.52 296.305,723.929C287.434,730.187 278.584,736.476 269.717,742.742C264.932,746.124 260.147,749.508 255.327,752.84C254.275,753.566 253.074,754.076 250.64,755.386C251.757,748.665 252.708,743.013 253.633,737.356C255.142,728.121 256.633,718.883 258.246,708.937C258.853,706.852 259.562,705.515 259.804,704.098C263.195,684.239 266.58,664.378 269.843,644.498C271.783,632.684 273.505,620.834 275.325,609.001C275.473,608.537 275.621,608.074 275.926,606.933C277.506,597.416 278.986,588.586 280.329,579.735C281.019,575.187 281.465,570.601 282.02,566.032C282.048,565.569 282.075,565.106 282.248,564.053C282.735,562.462 283.191,561.485 283.397,560.457C284.068,557.107 284.778,553.757 285.237,550.374C286.2,543.284 287.013,536.173 287.887,529.07C287.938,528.852 287.988,528.635 288.218,527.827C289.409,522.976 290.673,518.756 291.388,514.446C293.792,499.972 296,485.465 298.282,470.97C298.435,470.512 298.588,470.054 298.895,468.967C299.361,465.246 299.672,462.155 299.983,459.063C301.624,449.604 303.292,440.15 304.891,430.685C305.396,427.693 305.718,424.671 306.239,420.955C306.906,418.379 307.644,416.543 307.979,414.636C309.615,405.315 311.185,395.982 312.703,386.642C315.337,370.431 317.915,354.212 320.516,337.997C320.646,337.537 320.776,337.077 321.046,335.956C321.508,332.529 321.83,329.764 322.152,326.999C323.3,319.75 324.426,312.497 325.608,305.253C326.023,302.711 326.656,300.204 327.049,297.659C328.109,290.782 329.241,283.909 330.057,277.001C330.593,272.462 331.978,271.387 336.515,272.204C349.809,274.599 363.124,276.879 376.443,279.133C388.497,281.174 400.585,283.022 412.625,285.143C422.527,286.888 432.379,288.91 442.985,291.077C465.395,295.269 487.061,299.26 508.762,303.056C513.026,303.802 517.423,303.795 521.758,304.135C521.92,304.358 522.081,304.582 522.964,305.078C528.77,306.218 533.854,307.085 538.938,307.953C539.376,308.034 539.813,308.115 540.761,308.294C541.83,308.273 542.388,308.154 542.946,308.035C551.039,309.379 559.132,310.723 567.937,312.269C568.839,312.737 568.994,313.2 569.224,313.241C582.121,315.528 595.024,317.78 607.927,320.035C625.024,322.979 642.121,325.922 659.932,329.173C668.602,330.89 676.555,332.309 684.512,333.705C722.988,340.453 761.465,347.194 799.941,353.938C800.143,353.981 800.345,354.024 801.098,354.146C802.74,354.117 803.832,354.007 804.923,353.898C807.835,354.878 810.747,355.859 813.38,357.391C812.939,358.093 812.775,358.243 812.612,358.393C791.626,373.339 770.64,388.284 749.475,403.546Z" style="fill:rgb(176,44,45);fill-rule:nonzero;"/>
    </g>
    <g id="Halterung" transform="matrix(-1,0,0,1,1915.56,0)">
        <path d="M714.608,1266.85C720.12,1262.67 725.526,1258.35 731.161,1254.34C752.941,1238.86 774.795,1223.48 797.32,1207.94C800.106,1209.97 802.501,1211.9 804.225,1214.3C811.923,1225.05 819.402,1235.94 827.012,1246.75C834.336,1257.15 841.609,1267.59 849.122,1277.85C854.184,1284.77 859.626,1291.4 864.898,1298.16C864.931,1298.48 865.067,1298.75 865.574,1299.44C870.025,1306.48 873.936,1313.24 878.441,1319.58C890.15,1336.05 902.217,1352.27 913.956,1368.72C924.709,1383.79 935.16,1399.07 945.855,1414.18C956.011,1428.53 966.386,1442.73 976.522,1457.1C984.7,1468.69 992.585,1480.48 1000.75,1492.08C1009.41,1504.39 1018.25,1516.59 1027.01,1528.83C1035.96,1541.34 1044.97,1553.8 1053.85,1566.36C1058.33,1572.7 1062.74,1579.11 1066.79,1585.73C1067.57,1587 1067.21,1590.14 1066.16,1591.13C1063.3,1593.83 1059.79,1595.86 1056.52,1598.12C1047.03,1604.69 1037.46,1611.16 1028.03,1617.82C1013.86,1627.82 999.807,1637.98 985.599,1647.93C984.905,1648.42 982.652,1647.89 982.077,1647.12C979.107,1643.16 976.612,1638.85 973.641,1634.88C969.298,1629.1 964.691,1623.5 960.197,1617.83C960.197,1617.83 960.046,1618 960.033,1617.57C959.72,1616.55 959.489,1615.91 959.11,1615.37C947.154,1598.4 935.157,1581.45 923.22,1564.47C910.859,1546.88 898.636,1529.19 886.168,1511.67C882.769,1506.9 878.706,1502.6 874.948,1498.08C874.948,1498.08 874.99,1498.01 874.951,1497.66C874.379,1495.92 874.088,1494.38 873.275,1493.19C867.872,1485.27 862.399,1477.41 856.87,1469.58C843.918,1451.25 830.992,1432.9 817.922,1414.65C807.217,1399.7 796.2,1384.98 785.537,1370C772.476,1351.66 759.7,1333.11 746.684,1314.73C738.575,1303.28 730.102,1292.08 722.101,1280.55C719.148,1276.3 717.08,1271.44 714.608,1266.85Z" style="fill:rgb(246,234,76);fill-rule:nonzero;"/>
    </g>
    <g id="Brand" transform="matrix(-1,0,0,1,1915.56,0)">
        <path d="M1356.01,1017.97C1355.78,1017.76 1355.55,1017.55 1355.13,1016.79C1354.25,1015.04 1353.57,1013.84 1352.65,1012.2C1354.24,1012.06 1355.22,1011.77 1356.14,1011.91C1363.19,1013.01 1370.24,1014.09 1377.26,1015.38C1397.62,1019.12 1418.15,1021.06 1438.82,1019.79C1460.61,1018.45 1478.71,1009.08 1493.01,992.599C1502.92,981.18 1509.56,967.806 1514.97,953.849C1518.43,944.911 1521.26,935.718 1524.14,926.564C1526.65,918.57 1528.82,910.47 1531.14,902.418C1531.59,902.371 1532.04,902.325 1532.49,902.279C1533.99,906.735 1535.55,911.171 1536.98,915.65C1544.87,940.464 1550.57,965.981 1561.26,989.899C1571.95,1013.83 1589.89,1028.79 1615.32,1035.06C1630.58,1038.82 1646.07,1040.43 1661.72,1040.89C1662.72,1040.92 1663.72,1041.37 1664.92,1041.67C1651.71,1048.92 1638.85,1055.78 1626.17,1062.97C1609.92,1072.19 1596.29,1084.56 1585.09,1099.43C1572.75,1115.81 1567.27,1134.91 1565.1,1154.98C1562.88,1175.5 1565.5,1195.82 1568.8,1216.03C1569.96,1223.15 1571.72,1230.18 1573.21,1237.25C1568.85,1234.74 1565.37,1231.76 1561.98,1228.68C1545.9,1214.03 1529.42,1200.09 1509.9,1189.86C1487.12,1177.94 1463.55,1175.5 1439.4,1182.85C1424.03,1187.54 1409.76,1195.3 1397.06,1205.54C1391.9,1209.7 1386.37,1213.39 1381.01,1217.3C1380.35,1215.78 1380.48,1215.18 1380.74,1214.64C1391.05,1192.53 1401.72,1170.58 1411.61,1148.29C1424.14,1120.08 1422.65,1092.67 1403.21,1067.99C1391.31,1052.88 1377.87,1038.98 1364.92,1024.72C1362.45,1022.01 1359.01,1020.2 1356.01,1017.97Z" style="fill:rgb(240,226,42);fill-rule:nonzero;">
            <animate attributeName="fill" values="rgb(255,0,0);rgb(240,226,42)" dur="1s" repeatCount="indefinite" />
        </path>
    </g>
    <g id="Schnur" transform="matrix(-1,0,0,1,1915.56,0)">
        <path d="M1019.04,1052.07C1022.58,1048.71 1026.03,1045.48 1029.83,1042.75C1044.62,1032.12 1059.52,1021.64 1074.4,1011.14C1075.18,1010.59 1076.19,1010.38 1077.45,1010.03C1091.31,1022.61 1104.59,1035.43 1118.41,1047.65C1126.48,1054.8 1135.34,1061.07 1143.97,1067.58C1151.2,1073.04 1158.52,1078.39 1165.95,1083.57C1180.32,1093.59 1196.21,1099.96 1213.16,1104.38C1231.95,1109.28 1250.66,1109.27 1269.53,1106.02C1273.93,1105.26 1278.11,1103.34 1282.45,1102.14C1289.38,1100.23 1296.46,1098.77 1303.3,1096.58C1312.1,1093.75 1321.18,1091.26 1329.3,1087C1337.06,1082.93 1345.29,1083.03 1353.22,1082.48C1360.43,1081.98 1366.36,1087.05 1370.02,1093.65C1375.92,1104.31 1373.25,1114.81 1369.11,1125.21C1363.03,1140.47 1351.38,1150.59 1338.03,1159.27C1324.72,1167.93 1310,1173.49 1295.03,1178.07C1283.06,1181.73 1270.62,1184.15 1257.86,1183.85C1248.01,1183.62 1238.08,1184.61 1228.31,1183.73C1217.9,1182.8 1207.51,1180.81 1197.33,1178.39C1177.12,1173.6 1158.09,1165.67 1139.64,1156.08C1119.61,1145.67 1101.11,1133.08 1083.79,1118.72C1059.9,1098.91 1038.36,1076.78 1019.04,1052.07Z" style="fill:rgb(88,88,98);fill-rule:nonzero;"/>
    </g>
</svg>
