<?xml version="1.0" encoding="UTF-8" standalone="no"?><!DOCTYPE svg PUBLIC "-//W3C//DTD SVG 1.1//EN" "http://www.w3.org/Graphics/SVG/1.1/DTD/svg11.dtd"><svg width="100%" height="100%" viewBox="0 0 9321 9321" version="1.1" xmlns="http://www.w3.org/2000/svg" xmlns:xlink="http://www.w3.org/1999/xlink" xml:space="preserve" xmlns:serif="http://www.serif.com/" style="fill-rule:evenodd;clip-rule:evenodd;stroke-linejoin:round;stroke-miterlimit:2;"><g><path d="M4660.5,7456.79c1540.17,-0 2796.29,-1256.17 2796.29,-2796.33c-0,-1540.13 -1256.12,-2796.28 -2796.29,-2796.28c-1540.15,-0 -2796.31,1256.15 -2796.31,2796.28c-0,1540.17 1256.16,2796.33 2796.31,2796.33Z" style="fill:#32d951;"/><path d="M5405.21,5021.88c-40.708,-22.292 -240.541,-130.167 -278.041,-145.417c-37.5,-15.208 -64.834,-23.124 -94,17.334c-29.209,40.333 -112.125,130.666 -137.25,157.416c-47.709,50.625 -140.625,-15.958 -192.625,-44.916c-59.917,-33.334 -138.25,-84.667 -223.084,-166.167c-119.041,-114.458 -197.087,-253.208 -219.75,-295.542c-34.583,-64.75 86.542,-140.291 123.75,-209.541c2.042,-3.834 4.209,-7.834 6.542,-12.125c14.833,-27.125 8.833,-51.584 -0.75,-72.708c-9.625,-21.042 -84.833,-228.072 -116.254,-312.292c-39.871,-106.921 -216.192,-98.375 -282.329,-31.376c-39.496,40.005 -150.292,136.23 -157.934,340.167c-7.641,203.792 133.43,406.375 153.109,434.709c19.683,28.458 269.325,470.375 684.283,652.083c245.459,107.458 441.25,207.042 677.708,46.333c46.584,-31.666 86.583,-70.375 102.667,-110.583c38.167,-95.458 41.208,-178.375 31.542,-196.042c-9.75,-17.666 -36.917,-29.125 -77.584,-51.333Z" style="fill:#fff;"/><path d="M4667.04,5975.71l-0.542,0c-238.5,-0.083 -472.417,-64.125 -676.45,-185.208l-48.546,-28.75l-503.025,131.875l134.271,-490.292l-31.617,-50.25c-133.029,-211.541 -203.291,-456.041 -203.2,-707.083c0.288,-732.567 596.505,-1328.56 1329.61,-1328.56c355,0.128 688.708,138.512 939.625,389.645c250.916,251.138 389.083,584.959 388.917,939.959c-0.292,732.625 -596.501,1328.67 -1329.04,1328.67Zm1131.12,-2459.45c-301.875,-302.146 -703.375,-468.65 -1131.17,-468.804c-881.363,-0 -1598.68,717.05 -1599.05,1598.42c-0.112,281.75 73.517,556.75 213.458,799.167l-226.841,828.375l847.679,-222.292c233.546,127.333 496.504,194.458 764.129,194.542l0.667,-0c881.291,-0 1598.71,-717.125 1599.04,-1598.5c0.167,-427.124 -166,-828.758 -467.916,-1130.91Z" style="fill:#fff;"/></g></svg>